<?xml version="1.0" encoding="utf-8"?>
<!-- Generator: Adobe Illustrator 28.0.0, SVG Export Plug-In . SVG Version: 6.00 Build 0)  -->
<svg version="1.1" id="Layer_1" xmlns="http://www.w3.org/2000/svg" xmlns:xlink="http://www.w3.org/1999/xlink" x="0px" y="0px"
	 viewBox="0 0 274 338" style="enable-background:new 0 0 274 338;" xml:space="preserve">
<style type="text/css">
	.st0{fill:#DCDFE1;}
	.st1{fill:#EA5440;}
	.st2{fill:#C4CBD2;}
	.st3{fill:#ABB2B8;}
	.st4{fill:#FFFFFF;}
</style>
<g transform="translate(1.4065934065934016 1.4065934065934016) scale(2.81 2.81)">
	<path class="st0" d="M78.8,77.3V35.1c0-1.2-0.5-2.4-1.3-3.2L61.5,15.9c-0.9-0.9-2-1.3-3.2-1.3H15.7c-2.5,0-4.5,2-4.5,4.5v38.6v19.6
		C34.1,80,56.7,80.1,78.8,77.3z"/>
	<path class="st1" d="M11.2,77.3v11.2V100c0,2.5,2,4.5,4.5,4.5h58.5c2.5,0,4.5-2,4.5-4.5V77.3H11.2z"/>
	<polygon class="st2" points="60.3,33 78.8,51.5 78.7,34.3 	"/>
	<path class="st3" d="M77.5,31.9L61.5,15.9c-0.7-0.7-1.5-1.1-2.5-1.3V30c0,2.4,1.9,4.3,4.3,4.3h15.4C78.6,33.4,78.2,32.5,77.5,31.9z
		"/>
	<path class="st4" d="M33.1,82.9h-4.4c-0.7,0-1.2,0.6-1.2,1.2v8.1v5.5c0,0.7,0.6,1.2,1.2,1.2s1.2-0.6,1.2-1.2v-4.3h3.1
		c2.3,0,4.1-1.8,4.1-4.1V87C37.2,84.7,35.3,82.9,33.1,82.9z M34.7,89.4c0,0.9-0.7,1.6-1.6,1.6H30v-5.6h3.1c0.9,0,1.6,0.7,1.6,1.6
		V89.4z"/>
	<path class="st4" d="M45.4,99h-4.1c-0.7,0-1.2-0.6-1.2-1.2V84.2c0-0.7,0.6-1.2,1.2-1.2h4.1c2.4,0,4.4,2,4.4,4.4v7.4
		C49.7,97.1,47.8,99,45.4,99z M42.5,96.5h2.8c1,0,1.9-0.8,1.9-1.9v-7.4c0-1-0.8-1.9-1.9-1.9h-2.8V96.5z"/>
	<path class="st4" d="M61.3,82.9h-7.2c-0.7,0-1.2,0.6-1.2,1.2v13.6c0,0.7,0.6,1.2,1.2,1.2s1.2-0.6,1.2-1.2v-5.6h3.5
		c0.7,0,1.2-0.6,1.2-1.2s-0.6-1.2-1.2-1.2h-3.5v-4.3h6c0.7,0,1.2-0.6,1.2-1.2S62,82.9,61.3,82.9z"/>
	<path class="st2" d="M60.1,54.6C60,54.2,59.6,54,59.2,54h-4.8V42.2c0-0.6-0.4-1-1-1H40.6c-0.6,0-1,0.4-1,1V54h-4.8
		c-0.4,0-0.8,0.2-0.9,0.6c-0.2,0.4-0.1,0.8,0.2,1.1l12.2,12.2c0.2,0.2,0.5,0.3,0.7,0.3s0.5-0.1,0.7-0.3l12.2-12.2
		C60.2,55.4,60.3,55,60.1,54.6z"/>
	<path class="st1" d="M58.1,52.6C58,52.2,57.6,52,57.2,52h-4.8V40.2c0-0.6-0.4-1-1-1H38.6c-0.6,0-1,0.4-1,1V52h-4.8
		c-0.4,0-0.8,0.2-0.9,0.6c-0.2,0.4-0.1,0.8,0.2,1.1l12.2,12.2c0.2,0.2,0.5,0.3,0.7,0.3s0.5-0.1,0.7-0.3l12.2-12.2
		C58.2,53.4,58.3,53,58.1,52.6z"/>
</g>
</svg>
