<?xml version="1.0" encoding="utf-8"?>
<!-- Generator: Adobe Illustrator 28.0.0, SVG Export Plug-In . SVG Version: 6.00 Build 0)  -->
<svg version="1.1" id="Layer_1" xmlns="http://www.w3.org/2000/svg" xmlns:xlink="http://www.w3.org/1999/xlink" x="0px" y="0px"
	 viewBox="0 0 566.9 462.5" style="enable-background:new 0 0 566.9 462.5;" xml:space="preserve">
<style type="text/css">
	.st0{fill:#078038;}
	.st1{fill:#F9B22E;}
	.st2{fill:#E84E8A;}
</style>
<path class="st0" d="M40,314c0-0.1,0-0.1,0-0.2C40,180.2,148.7,71.5,282.3,71.5s242.3,108.7,242.3,242.3c0,0.1,0,0.1,0,0.2h29.8
	c0-0.1,0-0.1,0-0.2c0-150-122-272-272-272s-272,122-272,272c0,0.1,0,0.1,0,0.2H40z"/>
<path class="st1" d="M78.7,314c0-0.1,0-0.1,0-0.2c0-112.3,91.3-203.6,203.6-203.6s203.6,91.3,203.6,203.6c0,0.1,0,0.1,0,0.2h25
	c0-0.1,0-0.1,0-0.2c0-126-102.5-228.6-228.6-228.6S53.7,187.7,53.7,313.8c0,0.1,0,0.1,0,0.2H78.7z"/>
<path class="st2" d="M116.5,314c0-0.1,0-0.1,0-0.2c0-91.4,74.4-165.8,165.8-165.8S448,222.4,448,313.8c0,0.1,0,0.1,0,0.2h20.4
	c0-0.1,0-0.1,0-0.2c0-102.6-83.5-186.1-186.1-186.1S96.2,211.1,96.2,313.8c0,0.1,0,0.1,0,0.2H116.5z"/>
<path d="M16.7,335.8l9.6,24.6l10-26.4l9.6,26.4l10.2-24.6h6L45.7,375l-9.5-26.1L26.3,375l-15.6-39.2H16.7z"/>
<path d="M84.7,363.7H68.9l-4.1,8.9h-6l18.2-39.1l17.6,39.1h-6.1L84.7,363.7z M82.4,358.5L77,346l-5.7,12.5H82.4z"/>
<path d="M132.3,372.6v-36.8h6.3c2.8,0,5.1,0.2,6.8,0.6c1.7,0.4,3.1,1,4.3,1.9c1.2,0.9,2.1,2.1,2.8,3.5c0.7,1.4,1.1,2.8,1.1,4.3
	c0,2.6-1.2,4.9-3.5,6.7c2.2,0.7,4,1.8,5.3,3.5c1.3,1.7,2,3.6,2,5.8c0,2.9-1.2,5.3-3.5,7.3c-1.4,1.2-3,2.1-4.7,2.6
	c-1.9,0.5-4.3,0.7-7.2,0.7H132.3z M138.7,351.6h2c2.4,0,4.1-0.5,5.2-1.4c1.1-0.9,1.7-2.3,1.7-4c0-1.7-0.6-3-1.7-3.9
	c-1.1-0.9-2.8-1.3-4.9-1.3h-2.2V351.6z M138.7,367.4h3.9c2.9,0,5-0.5,6.3-1.5c1.4-1.1,2.1-2.4,2.1-4.1c0-1.6-0.7-2.9-2.1-4
	c-1.3-1.1-3.7-1.6-7.1-1.6h-3.2V367.4z"/>
<path d="M161.7,354.1c0-5.2,1.9-9.6,5.7-13.4c3.8-3.7,8.3-5.6,13.6-5.6c5.2,0,9.7,1.9,13.5,5.6c3.8,3.8,5.7,8.3,5.7,13.5
	c0,5.3-1.9,9.8-5.7,13.5c-3.8,3.7-8.4,5.6-13.8,5.6c-4.8,0-9-1.6-12.8-4.9C163.8,364.7,161.7,360,161.7,354.1z M167.3,354.1
	c0,4.1,1.4,7.4,4.1,10c2.7,2.6,5.9,3.9,9.4,3.9c3.9,0,7.1-1.3,9.8-4c2.7-2.7,4-6,4-9.9c0-3.9-1.3-7.2-3.9-9.9c-2.6-2.7-5.8-4-9.7-4
	c-3.8,0-7.1,1.3-9.7,4C168.7,347,167.3,350.3,167.3,354.1z"/>
<path d="M217.7,341v31.6h-5.6V341h-8.5v-5.2h22.5v5.2H217.7z"/>
<path d="M247,341v31.6h-5.6V341H233v-5.2h22.5v5.2H247z"/>
<path d="M350.9,335.8l10.2,25.5l10.3-25.5h6.1L361,375.4l-16.1-39.6H350.9z"/>
<path d="M389.8,335.8v36.8h-5.6v-36.8H389.8z"/>
<path d="M432.2,335.8v31.6h17.2v5.2h-22.7v-36.8H432.2z"/>
<path d="M403.9,335.8v31.6h17.2v5.2h-22.7v-36.8H403.9z"/>
<path d="M271.6,335.8v31.6h17.2v5.2H266v-36.8H271.6z"/>
<path d="M106.9,335.8v31.6h17.2v5.2h-22.7v-36.8H106.9z"/>
<path d="M479.5,363.7h-15.8l-4.1,8.9h-6l18.2-39.1l17.6,39.1h-6.1L479.5,363.7z M477.2,358.5l-5.5-12.5l-5.7,12.5H477.2z"/>
<path d="M510.9,353.5h15.2v1.2c0,2.8-0.3,5.2-1,7.3c-0.6,2-1.7,3.8-3.2,5.5c-3.4,3.8-7.8,5.8-13,5.8c-5.2,0-9.6-1.9-13.2-5.6
	c-3.7-3.7-5.5-8.2-5.5-13.5c0-5.3,1.9-9.9,5.6-13.6c3.7-3.7,8.3-5.6,13.6-5.6c2.9,0,5.6,0.6,8.1,1.8c2.4,1.2,4.7,3.1,7,5.7l-4,3.8
	c-3-4-6.7-6-11-6c-3.9,0-7.2,1.3-9.8,4c-2.6,2.6-4,5.9-4,9.9c0,4.1,1.5,7.5,4.4,10.1c2.8,2.5,5.7,3.7,8.9,3.7c2.7,0,5.2-0.9,7.4-2.8
	c2.2-1.9,3.4-4.1,3.6-6.7h-9.2V353.5z"/>
<path d="M555.4,341h-17.9v8.8H555v5.2h-17.5v12.3h17.9v5.2h-23.5v-36.8h23.5V341z"/>
<path d="M320.3,341h-17.9v8.8h17.5v5.2h-17.5v12.3h17.9v5.2h-23.5v-36.8h23.5V341z"/>
<g>
	<path d="M65,403.1h-7.2v-2.2h16.8v2.2h-7.2v18.6H65V403.1z"/>
	<path d="M75.4,415.6v0.1c0,2.8,1.9,4.5,4.4,4.5c1.7,0,2.9-0.8,4-2.4l0.2-0.1l1.6,1.1c-1.3,2.2-3.4,3.4-6,3.4c-4,0-6.7-2.9-6.7-7.1
		c0-4.3,2.7-7.1,6.5-7.1c3.8,0,6.3,2.6,6.3,7c0,0.2,0,0.3,0,0.5H75.4z M75.5,413.8h8c-0.1-2.3-1.6-3.7-3.9-3.7
		C77.4,410.1,75.8,411.4,75.5,413.8z"/>
	<path d="M89.6,408.6h2.2v2.3c1.1-1.9,2.8-2.9,4.8-2.9c3.2,0,4.9,1.9,4.9,5.2v8.5h-2.2v-7.5c0-2.8-1.1-4.1-3.3-4.1
		c-2.5,0-4.2,2.1-4.2,5v6.5h-2.2V408.6z"/>
	<path d="M117.4,420.2v1.7c-0.7,0.2-1.1,0.3-1.9,0.3c-1.2,0-2-0.7-2.1-1.9c-1.4,1.4-2.7,2-4.3,2c-2.3,0-3.8-1.4-3.8-3.6
		c0-2.4,2.3-4.1,8-4.9V413c0-2-0.8-2.9-2.4-2.9c-1.5,0-2.8,0.9-3.8,2.3l-0.2,0l-1.6-1c1.2-2,3.4-3.3,5.7-3.3c2.8,0,4.4,1.6,4.4,4.4
		v7c0,0.6,0.2,0.8,0.7,0.8c0.3,0,0.5-0.1,0.9-0.2L117.4,420.2z M113.4,418.8v-3.2c-4.2,0.7-5.7,1.6-5.7,3.1c0,1.1,0.7,1.7,2,1.7
		C111.2,420.4,112.4,419.8,113.4,418.8z"/>
	<path d="M120.5,408.6h2.2v2.3c1.1-1.9,2.8-2.9,4.8-2.9c3.2,0,4.9,1.9,4.9,5.2v8.5h-2.2v-7.5c0-2.8-1.1-4.1-3.3-4.1
		c-2.5,0-4.2,2.1-4.2,5v6.5h-2.2V408.6z"/>
	<path d="M143.9,419.9l0.1,2c-0.7,0.3-1.5,0.4-2.4,0.4c-2.4,0-3.8-1.4-3.8-3.9v-7.8h-2.5v-1.9h2.5v-4.1l1.9-1.2h0.3v5.3h3.9v1.9
		h-3.9v7.2c0,1.9,0.5,2.5,2,2.5c0.5,0,1.1-0.1,1.6-0.4L143.9,419.9z"/>
	<path d="M146.7,419.4l1.8-1.2l0.1,0c0.7,1.3,1.9,2.1,3.4,2.1c1.6,0,2.6-0.7,2.6-1.8c0-0.9-0.4-1.6-3-2.5c-3.5-1.3-4.4-2.5-4.4-4.3
		c0-2,1.7-3.7,4.6-3.7c2.3,0,4,1.1,4.7,2.8l-1.5,1.1l-0.2,0c-0.5-1.2-1.6-1.9-3-1.9s-2.3,0.7-2.3,1.6c0,0.8,0.4,1.4,3,2.4
		c3.4,1.3,4.4,2.4,4.4,4.4c0,2.2-1.9,3.8-4.9,3.8C149.6,422.3,147.7,421.3,146.7,419.4z"/>
	<path d="M180.4,420.2v1.7c-0.7,0.2-1.1,0.3-1.9,0.3c-1.2,0-2-0.7-2.1-1.9c-1.4,1.4-2.7,2-4.3,2c-2.3,0-3.8-1.4-3.8-3.6
		c0-2.4,2.3-4.1,8-4.9V413c0-2-0.8-2.9-2.4-2.9c-1.5,0-2.8,0.9-3.8,2.3l-0.2,0l-1.6-1c1.2-2,3.4-3.3,5.7-3.3c2.8,0,4.4,1.6,4.4,4.4
		v7c0,0.6,0.2,0.8,0.7,0.8c0.3,0,0.5-0.1,0.9-0.2L180.4,420.2z M176.3,418.8v-3.2c-4.2,0.7-5.7,1.6-5.7,3.1c0,1.1,0.7,1.7,2,1.7
		C174.1,420.4,175.4,419.8,176.3,418.8z"/>
	<path d="M183.5,408.6h2.2v2.3c1.1-1.9,2.8-2.9,4.8-2.9c3.2,0,4.9,1.9,4.9,5.2v8.5h-2.2v-7.5c0-2.8-1.1-4.1-3.3-4.1
		c-2.5,0-4.2,2.1-4.2,5v6.5h-2.2V408.6z"/>
	<path d="M199.1,415.2c0-4.2,2.7-7.1,6.2-7.1c2,0,3.8,1,4.9,2.9v-4.3v-6.6h2.2v21.6h-2.2v-2.3c-1,1.7-3,2.8-5,2.8
		C201.6,422.3,199.1,419.5,199.1,415.2z M210.3,415.2c0-2.9-1.9-5-4.5-5c-2.6,0-4.3,1.9-4.3,5c0,3.2,1.6,5,4.2,5
		C208.5,420.2,210.3,418.2,210.3,415.2z"/>
	<path d="M241.4,421.3l-0.2,0.5h-2.5l-6.5-9.2h-3.4v9.2h-2.4v-20.9h6c4.4,0,6.8,1.9,6.8,5.9c0,2.7-1.5,4.7-4.4,5.4L241.4,421.3z
		 M228.8,403v7.3h2.9c3.4,0,5-1,5-3.6c0-2.7-1.6-3.7-5-3.7H228.8z"/>
	<path d="M245.2,415.6v0.1c0,2.8,1.9,4.5,4.4,4.5c1.7,0,2.9-0.8,4-2.4l0.2-0.1l1.6,1.1c-1.3,2.2-3.4,3.4-6,3.4c-4,0-6.7-2.9-6.7-7.1
		c0-4.3,2.7-7.1,6.5-7.1c3.8,0,6.3,2.6,6.3,7c0,0.2,0,0.3,0,0.5H245.2z M245.3,413.8h8c-0.1-2.3-1.6-3.7-3.9-3.7
		C247.3,410.1,245.7,411.4,245.3,413.8z"/>
	<path d="M258.2,419.4l1.8-1.2l0.1,0c0.7,1.3,1.9,2.1,3.4,2.1c1.6,0,2.6-0.7,2.6-1.8c0-0.9-0.4-1.6-3-2.5c-3.5-1.3-4.4-2.5-4.4-4.3
		c0-2,1.7-3.7,4.6-3.7c2.3,0,4,1.1,4.7,2.8l-1.5,1.1l-0.2,0c-0.5-1.2-1.6-1.9-3-1.9s-2.3,0.7-2.3,1.6c0,0.8,0.4,1.4,3,2.4
		c3.4,1.3,4.4,2.4,4.4,4.4c0,2.2-1.9,3.8-4.9,3.8C261.1,422.3,259.2,421.3,258.2,419.4z"/>
	<path d="M271.4,402.4c0-0.9,0.7-1.6,1.6-1.6s1.6,0.8,1.6,1.7c0,0.9-0.7,1.6-1.6,1.6S271.4,403.4,271.4,402.4z M272,421.7v-13.1h2.2
		v13.1H272z"/>
	<path d="M277.9,415.2c0-4.2,2.7-7.1,6.2-7.1c2,0,3.8,1,4.9,2.9v-4.3v-6.6h2.2v21.6h-2.2v-2.3c-1,1.7-3,2.8-5,2.8
		C280.4,422.3,277.9,419.5,277.9,415.2z M289.1,415.2c0-2.9-1.9-5-4.5-5c-2.6,0-4.3,1.9-4.3,5c0,3.2,1.6,5,4.2,5
		C287.3,420.2,289.1,418.2,289.1,415.2z"/>
	<path d="M297.3,415.6v0.1c0,2.8,1.9,4.5,4.4,4.5c1.7,0,2.9-0.8,4-2.4l0.2-0.1l1.6,1.1c-1.3,2.2-3.4,3.4-6,3.4c-4,0-6.7-2.9-6.7-7.1
		c0-4.3,2.7-7.1,6.5-7.1c3.8,0,6.3,2.6,6.3,7c0,0.2,0,0.3,0,0.5H297.3z M297.4,413.8h8c-0.1-2.3-1.7-3.7-3.9-3.7
		C299.3,410.1,297.8,411.4,297.4,413.8z"/>
	<path d="M311.6,408.6h2.2v2.3c1.1-1.9,2.8-2.9,4.8-2.9c3.2,0,5,1.9,5,5.2v8.5h-2.2v-7.5c0-2.8-1.1-4.1-3.3-4.1
		c-2.5,0-4.2,2.1-4.2,5v6.5h-2.2V408.6z"/>
	<path d="M335,419.9l0.1,2c-0.7,0.3-1.5,0.4-2.4,0.4c-2.4,0-3.8-1.4-3.8-3.9v-7.8h-2.5v-1.9h2.5v-4.1l1.9-1.2h0.3v5.3h3.9v1.9h-3.9
		v7.2c0,1.9,0.5,2.5,2,2.5c0.5,0,1.1-0.1,1.6-0.4L335,419.9z"/>
	<path d="M337.7,419.4l1.8-1.2l0.1,0c0.7,1.3,1.9,2.1,3.4,2.1c1.6,0,2.6-0.7,2.6-1.8c0-0.9-0.4-1.6-3-2.5c-3.5-1.3-4.4-2.5-4.4-4.3
		c0-2,1.7-3.7,4.6-3.7c2.3,0,4,1.1,4.7,2.8l-1.5,1.1l-0.2,0c-0.5-1.2-1.6-1.9-3-1.9s-2.3,0.7-2.3,1.6c0,0.8,0.4,1.4,3,2.4
		c3.4,1.3,4.4,2.4,4.4,4.4c0,2.2-1.9,3.8-4.9,3.8C340.6,422.3,338.8,421.3,337.7,419.4z"/>
	<path d="M375.1,421.7l-2.3-5.5h-10.1l-2.3,5.5h-2.6l9-20.9h1.9l9,20.9H375.1z M363.5,414.1h8.4l-2.7-6.6c-0.6-1.4-1-2.5-1.4-3.6
		h-0.1c-0.4,1.1-0.9,2.2-1.4,3.6L363.5,414.1z"/>
	<path d="M379,419.4l1.8-1.2l0.1,0c0.7,1.3,1.9,2.1,3.4,2.1c1.6,0,2.6-0.7,2.6-1.8c0-0.9-0.4-1.6-3-2.5c-3.5-1.3-4.4-2.5-4.4-4.3
		c0-2,1.7-3.7,4.6-3.7c2.3,0,4,1.1,4.7,2.8l-1.5,1.1l-0.2,0c-0.5-1.2-1.6-1.9-3-1.9s-2.3,0.7-2.3,1.6c0,0.8,0.4,1.4,3,2.4
		c3.4,1.3,4.4,2.4,4.4,4.4c0,2.2-1.9,3.8-4.9,3.8C381.8,422.3,380,421.3,379,419.4z"/>
	<path d="M391.3,419.4l1.8-1.2l0.1,0c0.7,1.3,1.9,2.1,3.4,2.1c1.6,0,2.6-0.7,2.6-1.8c0-0.9-0.4-1.6-3-2.5c-3.5-1.3-4.4-2.5-4.4-4.3
		c0-2,1.7-3.7,4.6-3.7c2.3,0,4,1.1,4.7,2.8l-1.5,1.1l-0.2,0c-0.5-1.2-1.6-1.9-3-1.9s-2.3,0.7-2.3,1.6c0,0.8,0.4,1.4,3,2.4
		c3.4,1.3,4.4,2.4,4.4,4.4c0,2.2-1.9,3.8-4.9,3.8C394.2,422.3,392.3,421.3,391.3,419.4z"/>
	<path d="M404,415.2c0-4,3.1-7.1,7.2-7.1s7.2,3.1,7.2,7.1c0,4-3.1,7.1-7.2,7.1C407.1,422.3,404,419.2,404,415.2z M415.9,415.2
		c0-2.8-2.1-5-4.8-5s-4.8,2.2-4.8,5s2.1,5,4.8,5C413.8,420.2,415.9,418,415.9,415.2z"/>
	<path d="M420.9,415.2c0-4.2,2.7-7.1,6.7-7.1c2.5,0,4.7,1.1,6.1,3.5l-1.7,1.1l-0.2-0.1c-1.1-1.8-2.4-2.6-4.2-2.6
		c-2.5,0-4.4,1.9-4.4,5c0,3.2,1.9,5.1,4.4,5.1c1.8,0,3.1-0.8,4.2-2.6l0.2-0.1l1.6,1.1c-1.3,2.4-3.5,3.6-6.1,3.6
		C423.5,422.3,420.9,419.4,420.9,415.2z"/>
	<path d="M436.8,402.4c0-0.9,0.7-1.6,1.6-1.6c0.9,0,1.7,0.8,1.7,1.7c0,0.9-0.7,1.6-1.7,1.6C437.5,404.1,436.8,403.4,436.8,402.4z
		 M437.3,421.7v-13.1h2.2v13.1H437.3z"/>
	<path d="M455.4,420.2v1.7c-0.7,0.2-1.1,0.3-1.9,0.3c-1.2,0-2-0.7-2.1-1.9c-1.4,1.4-2.7,2-4.3,2c-2.3,0-3.8-1.4-3.8-3.6
		c0-2.4,2.3-4.1,8-4.9V413c0-2-0.8-2.9-2.4-2.9s-2.8,0.9-3.8,2.3l-0.2,0l-1.6-1c1.2-2,3.4-3.3,5.7-3.3c2.8,0,4.4,1.6,4.4,4.4v7
		c0,0.6,0.2,0.8,0.7,0.8c0.3,0,0.5-0.1,0.9-0.2L455.4,420.2z M451.4,418.8v-3.2c-4.2,0.7-5.7,1.6-5.7,3.1c0,1.1,0.7,1.7,2,1.7
		C449.1,420.4,450.4,419.8,451.4,418.8z"/>
	<path d="M465.3,419.9l0.1,2c-0.7,0.3-1.5,0.4-2.4,0.4c-2.4,0-3.8-1.4-3.8-3.9v-7.8h-2.5v-1.9h2.5v-4.1l1.9-1.2h0.3v5.3h3.9v1.9
		h-3.9v7.2c0,1.9,0.5,2.5,2,2.5c0.5,0,1.1-0.1,1.6-0.4L465.3,419.9z"/>
	<path d="M468.3,402.4c0-0.9,0.7-1.6,1.6-1.6c0.9,0,1.7,0.8,1.7,1.7c0,0.9-0.7,1.6-1.7,1.6C469,404.1,468.3,403.4,468.3,402.4z
		 M468.8,421.7v-13.1h2.2v13.1H468.8z"/>
	<path d="M474.7,415.2c0-4,3.1-7.1,7.2-7.1s7.2,3.1,7.2,7.1c0,4-3.1,7.1-7.2,7.1C477.8,422.3,474.7,419.2,474.7,415.2z M486.7,415.2
		c0-2.8-2.1-5-4.8-5s-4.8,2.2-4.8,5s2.1,5,4.8,5C484.6,420.2,486.7,418,486.7,415.2z"/>
	<path d="M492.7,408.6h2.2v2.3c1.1-1.9,2.8-2.9,4.8-2.9c3.2,0,5,1.9,5,5.2v8.5h-2.2v-7.5c0-2.8-1.1-4.1-3.3-4.1
		c-2.5,0-4.2,2.1-4.2,5v6.5h-2.2V408.6z"/>
</g>
</svg>
