<?xml version="1.0" standalone="no"?>
<!DOCTYPE svg PUBLIC "-//W3C//DTD SVG 20010904//EN"
 "http://www.w3.org/TR/2001/REC-SVG-20010904/DTD/svg10.dtd">
<svg version="1.0" xmlns="http://www.w3.org/2000/svg"
 width="700.000000pt" height="700.000000pt" viewBox="0 0 700.000000 700.000000"
 preserveAspectRatio="xMidYMid meet">
<metadata>
Created by potrace 1.14, written by Peter Selinger 2001-2017
</metadata>
<g transform="translate(0.000000,700.000000) scale(0.100000,-0.100000)"
fill="#000000" stroke="none">
<path d="M3279 5796 c-2 -2 -44 -7 -92 -11 -49 -3 -98 -8 -110 -10 -12 -2 -40
-6 -62 -9 -557 -80 -1095 -317 -1555 -685 -100 -80 -342 -316 -426 -414 -329
-390 -561 -846 -679 -1332 -18 -77 -37 -162 -41 -190 -5 -27 -9 -52 -9 -55 -1
-3 -5 -32 -9 -65 -5 -33 -10 -68 -12 -78 -11 -61 -23 -353 -15 -364 3 -5 83
-9 176 -8 l171 0 0 40 c0 82 17 296 29 370 3 22 8 54 11 70 77 484 316 994
645 1382 130 153 377 378 540 492 319 223 740 402 1094 465 17 3 40 8 52 10
11 3 43 7 70 11 26 4 58 8 70 10 85 13 202 19 353 19 229 0 337 -9 525 -44 28
-5 61 -11 75 -14 71 -12 242 -60 346 -97 634 -222 1168 -657 1520 -1236 90
-148 244 -480 244 -525 0 -8 4 -18 8 -24 14 -15 84 -260 98 -344 6 -30 22
-125 29 -160 12 -67 28 -270 29 -360 1 -30 4 -57 8 -60 4 -3 82 -5 175 -5
l168 0 -1 100 c-1 97 -13 285 -19 295 -2 3 -6 34 -10 70 -4 36 -8 67 -10 70
-2 3 -6 25 -9 50 -3 25 -19 100 -36 166 -257 1055 -1004 1894 -2025 2277 -151
57 -378 119 -515 142 -19 3 -46 8 -60 10 -54 11 -67 13 -135 20 -38 4 -79 10
-90 12 -24 6 -511 14 -516 9z"/>
<path d="M3377 5285 c-1 -1 -47 -5 -102 -9 -571 -36 -1158 -287 -1594 -681
-103 -93 -230 -226 -291 -305 -19 -25 -37 -47 -41 -50 -14 -12 -112 -153 -169
-245 -193 -309 -331 -694 -376 -1045 -14 -110 -18 -170 -18 -265 l-1 -110 143
0 c78 0 143 2 143 5 1 3 3 37 4 75 4 98 14 210 25 275 5 30 12 70 15 88 42
251 160 560 308 806 225 373 557 685 947 889 243 127 547 226 776 252 32 4 68
10 79 12 37 10 420 11 490 2 354 -45 591 -114 868 -255 127 -64 277 -159 367
-230 224 -179 402 -371 549 -591 239 -360 379 -796 396 -1233 2 -47 4 -87 4
-90 1 -3 66 -5 146 -5 l145 0 1 35 c1 58 -2 170 -6 188 -1 9 -6 48 -10 85 -3
37 -8 76 -10 86 -2 10 -6 36 -9 57 -34 228 -127 516 -242 747 -333 671 -932
1181 -1639 1395 -55 17 -116 34 -135 38 -19 4 -39 9 -45 10 -11 3 -48 11 -85
19 -38 8 -140 24 -185 29 -138 16 -184 19 -308 21 -75 1 -138 1 -140 0z"/>
<path d="M3478 4786 c-1 -2 -55 -6 -118 -10 -247 -14 -415 -50 -655 -139 -506
-188 -953 -592 -1190 -1077 -20 -41 -40 -82 -45 -92 -46 -84 -137 -383 -155
-503 -3 -23 -7 -52 -10 -65 -8 -43 -18 -172 -19 -250 l-1 -74 118 -1 117 0 1
25 c10 245 42 422 116 634 30 86 58 147 157 343 6 13 14 23 19 23 4 0 7 4 7
10 0 5 23 43 52 82 248 349 577 601 961 737 89 31 212 65 277 76 19 3 42 8 50
10 47 13 179 20 355 19 203 0 321 -15 485 -60 439 -122 830 -397 1091 -769
225 -319 352 -711 359 -1105 l0 -26 118 1 117 0 -1 90 c-3 518 -250 1083 -643
1473 -266 264 -597 458 -961 563 -36 11 -76 21 -90 24 -14 3 -36 7 -50 10 -34
7 -128 23 -170 29 -19 3 -87 8 -150 11 -63 4 -120 8 -127 10 -6 2 -13 2 -15 1z"/>
<path d="M1037 2309 c-8 -19 -47 -104 -87 -189 -40 -85 -80 -174 -91 -197
l-18 -43 35 0 c32 0 36 4 57 53 l23 52 95 1 94 1 24 -53 c22 -50 26 -54 57
-54 19 0 34 2 34 4 0 6 -200 450 -205 454 -2 2 -10 -11 -18 -29z m20 -257
c-33 -2 -61 -1 -63 1 -2 2 10 35 27 73 l32 69 32 -70 31 -70 -59 -3z"/>
<path d="M5720 2331 c0 -9 -22 -58 -146 -322 -30 -63 -54 -118 -54 -122 0 -4
15 -7 33 -7 30 0 35 5 58 53 l24 52 86 1 c48 1 91 -1 95 -5 5 -3 19 -27 31
-53 21 -44 26 -48 58 -48 20 0 34 3 32 8 -3 4 -26 54 -52 112 -123 276 -154
340 -159 340 -3 0 -6 -4 -6 -9z m70 -277 c0 -2 -27 -4 -60 -4 -34 0 -60 4 -60
10 0 6 14 38 31 72 l31 62 29 -68 c16 -37 29 -70 29 -72z"/>
<path d="M562 2310 c-5 -14 -31 -81 -57 -150 -26 -69 -49 -127 -51 -129 -2 -2
-6 5 -10 15 -4 10 -29 76 -56 146 l-49 126 -34 0 c-19 0 -35 -1 -35 -2 0 -3
80 -207 137 -351 20 -49 39 -93 42 -97 4 -5 29 51 56 123 27 72 54 137 59 145
9 11 22 -18 60 -123 27 -76 51 -141 55 -145 7 -8 191 419 191 441 0 6 -13 11
-30 11 -33 0 -36 -6 -115 -198 -21 -51 -39 -91 -41 -89 -2 1 -22 54 -44 117
-23 63 -47 131 -55 150 l-13 35 -10 -25z"/>
<path d="M2220 2314 c-210 -62 -213 -361 -5 -431 41 -14 126 -8 168 12 51 24
98 78 117 134 57 171 -105 336 -280 285z m146 -72 c90 -48 107 -190 32 -259
-75 -70 -181 -60 -244 23 -50 65 -32 175 38 227 47 35 119 39 174 9z"/>
<path d="M6108 2315 c-128 -44 -187 -167 -142 -298 17 -49 74 -110 122 -129
86 -33 200 -1 246 69 25 38 31 58 40 121 l4 33 -91 -3 -92 -3 -3 -27 c-3 -28
-2 -28 52 -28 58 0 63 -4 45 -42 -30 -68 -130 -90 -200 -44 -48 32 -71 76 -72
136 -2 133 144 208 253 129 l43 -31 20 20 c25 25 15 40 -49 78 -50 30 -123 38
-176 19z"/>
<path d="M1345 2308 c-2 -7 -3 -105 -2 -218 l2 -205 133 -3 132 -3 0 31 c0 33
8 31 -123 32 -37 0 -70 5 -73 10 -3 5 -6 89 -6 187 l0 177 -29 2 c-17 1 -31
-3 -34 -10z"/>
<path d="M1710 2098 l0 -218 38 -1 c142 -3 198 12 234 61 40 55 26 123 -31
158 -29 17 -29 18 -10 41 37 46 15 127 -43 157 -20 10 -61 17 -110 19 l-78 2
0 -219z m162 135 c41 -37 6 -103 -54 -103 -36 0 -34 -7 -29 106 1 18 6 21 33
18 17 -2 40 -11 50 -21z m6 -162 c21 -2 52 -40 52 -64 0 -38 -33 -60 -92 -61
l-53 -1 -1 60 c0 33 1 63 3 66 1 4 20 5 40 4 21 -2 44 -4 51 -4z"/>
<path d="M2563 2311 c-14 -11 -15 -51 -1 -53 17 -2 59 -5 78 -7 13 -1 15 -27
15 -183 l0 -183 33 -3 32 -3 1 48 c0 26 0 111 0 188 l0 141 50 -1 c50 -1 50
-1 47 30 l-3 30 -122 1 c-68 0 -126 -2 -130 -5z"/>
<path d="M2902 2285 c3 -28 6 -30 45 -30 23 0 44 -3 48 -6 3 -4 6 -88 6 -188
l0 -181 35 0 34 0 0 188 0 188 48 -1 c45 0 47 1 50 31 l3 30 -136 0 -136 0 3
-31z"/>
<path d="M3295 2306 c-2 -6 -3 -103 -2 -216 l2 -205 134 0 c132 0 134 0 137
23 5 31 -18 38 -121 36 l-85 -2 -2 186 -3 187 -28 1 c-16 1 -30 -4 -32 -10z"/>
<path d="M3659 2291 c-1 -33 -1 -394 0 -403 1 -3 62 -6 138 -5 132 2 136 3
139 24 2 12 -2 25 -8 29 -6 4 -55 8 -107 8 l-96 1 -1 73 0 72 103 0 103 0 0
30 0 30 -104 0 -104 0 1 50 c0 38 4 50 16 51 9 1 57 2 106 3 l90 1 0 30 0 30
-137 1 -138 2 -1 -27z"/>
<path d="M4234 2305 c100 -250 130 -325 141 -350 7 -16 18 -45 25 -62 7 -18
15 -33 19 -33 3 0 26 49 50 108 48 118 64 156 85 205 17 39 56 137 56 141 0 1
-15 3 -34 4 l-33 1 -58 -142 c-55 -137 -75 -176 -75 -148 0 8 -25 76 -56 153
l-57 138 -34 -2 c-18 -1 -32 -7 -29 -13z"/>
<path d="M4697 2313 c-2 -5 -4 -102 -3 -218 l1 -210 33 -3 32 -3 0 218 0 219
-29 2 c-16 1 -32 -1 -34 -5z"/>
<path d="M4862 2101 l3 -216 133 -3 132 -2 0 30 c0 17 -6 30 -12 31 -7 1 -52
1 -100 1 l-88 -1 -1 37 c0 20 -2 104 -2 187 l-2 150 -33 1 -32 1 2 -216z"/>
<path d="M5199 2312 c-3 -25 -4 -400 -1 -414 3 -14 21 -17 136 -17 l132 0 2
24 c3 34 -12 39 -113 40 l-90 0 -2 160 c-1 88 -2 172 -2 186 -1 22 -6 26 -31
27 -16 0 -30 -2 -31 -6z"/>
<path d="M6446 2311 c-2 -3 -3 -101 -3 -217 l1 -212 138 -1 138 -1 0 30 c0 17
-5 30 -12 31 -7 1 -55 1 -105 1 l-93 0 0 74 0 74 104 0 105 0 -1 30 -1 30
-104 0 -103 0 0 50 c0 33 4 50 13 51 6 1 54 2 104 3 51 0 93 4 93 9 0 59 13
54 -135 54 -75 0 -137 -3 -139 -6z"/>
<path d="M2634 1547 c-3 -8 -4 -18 -3 -23 5 -27 -2 -97 -9 -87 -4 7 -22 16
-39 19 -26 5 -37 1 -57 -19 -63 -64 1 -176 77 -133 15 8 27 11 27 6 0 -6 6
-10 14 -10 11 0 14 26 15 124 0 74 -3 128 -9 131 -6 3 -13 0 -16 -8z m-10
-138 c19 -28 8 -67 -25 -85 -26 -13 -30 -13 -49 6 -11 11 -20 33 -20 49 0 54
63 74 94 30z"/>
<path d="M3569 1548 c-1 -7 -1 -37 -1 -66 0 -50 -1 -53 -17 -38 -36 32 -102 8
-114 -42 -3 -12 -1 -38 4 -56 12 -42 59 -67 91 -47 10 6 28 9 39 6 18 -6 19 0
19 124 0 81 -4 131 -10 131 -5 0 -11 -6 -11 -12z m-28 -117 c3 -1 11 -13 18
-27 16 -35 -5 -78 -39 -82 -35 -3 -50 9 -55 47 -4 37 22 72 52 66 10 -2 21 -4
24 -4z"/>
<path d="M830 1533 c0 -8 15 -13 40 -13 l40 0 0 -110 c0 -91 3 -110 15 -110
12 0 15 19 15 110 l0 110 45 0 c33 0 43 3 39 14 -7 18 -194 17 -194 -1z"/>
<path d="M2829 1546 c-1 0 -2 -56 -4 -123 -2 -99 0 -123 11 -123 10 0 14 14
15 48 1 26 1 50 0 55 0 4 8 7 19 7 12 0 35 -21 60 -55 22 -30 47 -55 56 -55
13 0 13 4 -3 31 -10 17 -27 40 -37 51 -19 21 -19 21 3 39 34 27 33 92 -1 110
-18 10 -113 22 -119 15z m104 -44 c13 -14 14 -22 4 -42 -9 -18 -21 -25 -50
-26 l-37 -2 0 44 c0 43 1 44 33 44 20 0 41 -7 50 -18z"/>
<path d="M3367 1543 c-4 -3 -7 -12 -7 -20 0 -15 26 -18 34 -4 7 11 -18 33 -27
24z"/>
<path d="M4465 1495 c-14 -30 -32 -71 -41 -92 -38 -84 -43 -103 -27 -103 8 0
20 14 26 30 6 17 18 30 27 31 18 1 92 1 103 0 4 -1 13 -14 18 -31 6 -16 17
-30 25 -30 8 0 14 3 14 6 0 17 -104 244 -112 244 -5 0 -20 -25 -33 -55z m61
-50 l21 -55 -48 0 -49 0 16 38 c9 20 18 45 21 55 8 28 17 20 39 -38z"/>
<path d="M5327 1543 c-4 -3 -7 -12 -7 -20 0 -15 26 -18 34 -4 7 11 -18 33 -27
24z"/>
<path d="M5697 1543 c-4 -3 -7 -12 -7 -20 0 -15 26 -18 34 -4 7 11 -18 33 -27
24z"/>
<path d="M1785 1512 c-6 -4 -11 -15 -12 -24 -1 -35 -3 -38 -20 -38 -16 -1 -16
-2 2 -16 15 -11 20 -27 20 -64 1 -51 12 -72 42 -76 27 -4 36 20 10 26 -19 5
-22 14 -25 57 -3 47 -1 52 19 55 30 4 36 26 7 24 -19 -1 -24 5 -28 31 -3 20
-9 30 -15 25z"/>
<path d="M5593 1509 c-7 -7 -13 -23 -13 -36 0 -14 -6 -23 -15 -23 -8 0 -15 -4
-15 -10 0 -5 7 -10 15 -10 16 0 18 -11 15 -71 -2 -42 22 -72 54 -67 21 3 26
22 6 24 -5 1 -14 2 -20 3 -5 0 -10 26 -10 56 0 48 2 55 20 55 11 0 20 7 20 16
0 11 -6 13 -19 9 -17 -5 -20 0 -23 30 -2 29 -5 34 -15 24z"/>
<path d="M4040 1485 c0 -17 -7 -28 -22 -34 -22 -8 -22 -8 -2 -19 17 -9 21 -21
21 -63 1 -59 19 -85 52 -74 28 8 27 23 -1 27 -20 3 -23 9 -24 56 -1 48 0 52
22 52 13 0 24 4 24 9 0 11 -29 23 -40 16 -4 -3 -7 9 -6 25 1 19 -3 30 -11 30
-7 0 -13 -11 -13 -25z"/>
<path d="M1037 1448 c-44 -33 -34 -129 15 -147 43 -16 110 11 94 38 -5 8 -12
6 -22 -4 -22 -22 -60 -18 -79 7 -14 21 -14 23 0 28 9 3 38 5 65 4 49 -2 50 -2
44 24 -4 15 -14 35 -22 45 -18 20 -71 23 -95 5z m85 -30 c13 -22 9 -24 -37
-25 -31 -1 -45 3 -45 13 0 30 64 40 82 12z"/>
<path d="M1214 1452 c-15 -10 -12 -144 4 -149 8 -3 12 10 12 46 0 38 5 56 20
71 38 38 65 15 69 -61 2 -56 7 -72 20 -65 4 3 7 35 6 72 -2 52 -6 70 -21 81
-24 18 -59 17 -75 -3 -12 -14 -14 -14 -19 0 -3 8 -10 12 -16 8z"/>
<path d="M1411 1444 c-17 -12 -20 -19 -11 -28 7 -7 13 -8 18 0 13 19 41 23 57
8 19 -20 13 -30 -24 -37 -58 -12 -82 -68 -37 -88 17 -8 29 -8 45 0 15 8 27 9
40 1 26 -13 31 -13 31 5 0 8 -4 15 -10 15 -5 0 -10 24 -10 54 0 80 -42 110
-99 70z m74 -91 c-2 -10 -4 -21 -4 -25 -2 -14 -61 -9 -61 5 0 20 21 37 46 37
16 0 21 -5 19 -17z"/>
<path d="M1570 1381 c0 -60 3 -81 13 -81 8 0 13 13 12 38 -1 78 31 117 72 87
13 -9 17 -27 18 -66 0 -33 5 -54 13 -57 19 -6 16 122 -4 142 -18 19 -47 20
-75 5 -15 -7 -24 -7 -35 2 -12 10 -14 0 -14 -70z"/>
<path d="M1900 1440 c-26 -26 -17 -46 32 -71 26 -13 38 -26 36 -37 -4 -19 -48
-18 -59 0 -7 11 -29 2 -29 -12 0 -13 60 -30 86 -24 25 6 42 44 29 64 -3 5 -25
20 -48 31 -38 20 -40 22 -23 35 14 10 24 10 38 3 25 -13 35 -4 18 16 -17 21
-56 19 -80 -5z"/>
<path d="M2158 1446 c-17 -12 -25 -36 -13 -36 3 0 17 7 30 16 20 13 28 14 40
4 24 -20 18 -37 -15 -43 -43 -9 -73 -42 -60 -67 13 -24 47 -35 65 -20 10 9 19
9 35 0 16 -8 25 -9 33 -1 7 7 6 12 -4 16 -11 4 -15 20 -14 56 1 28 -5 59 -13
70 -15 22 -59 25 -84 5z m72 -96 c0 -26 -32 -43 -53 -27 -18 13 -12 30 13 40
28 11 40 7 40 -13z"/>
<path d="M2319 1455 c-6 -45 -3 -148 4 -152 12 -7 26 17 20 34 -11 27 8 84 30
92 41 16 57 -4 57 -69 0 -47 3 -60 15 -60 12 0 14 12 11 65 -2 35 -9 71 -16
80 -16 19 -64 19 -80 0 -11 -13 -14 -13 -26 2 -7 10 -14 14 -15 8z"/>
<path d="M3041 1434 c-43 -54 -17 -128 47 -138 25 -3 39 1 60 21 l27 25 -25
-7 c-60 -16 -76 -16 -89 -1 -25 29 -7 43 53 39 49 -2 56 0 56 16 0 34 -39 71
-75 71 -24 0 -39 -7 -54 -26z m89 -9 c25 -15 8 -31 -35 -32 -47 -2 -55 6 -30
31 14 14 43 15 65 1z"/>
<path d="M3222 1448 c-25 -25 -14 -58 23 -74 20 -8 39 -22 42 -30 9 -24 -18
-36 -44 -19 -28 19 -33 19 -33 1 0 -31 69 -46 94 -20 27 27 15 56 -32 82 -34
19 -40 27 -32 37 9 10 18 11 36 4 39 -14 49 -11 29 11 -20 22 -64 27 -83 8z"/>
<path d="M3660 1440 c-11 -11 -20 -26 -21 -32 0 -7 -2 -20 -4 -30 -5 -26 32
-78 57 -80 41 -2 63 2 78 17 10 10 11 18 4 25 -8 8 -15 6 -24 -5 -18 -22 -56
-19 -74 7 -9 12 -14 24 -11 26 2 3 30 5 62 6 56 1 58 2 55 26 -7 55 -82 80
-122 40z m88 -20 c2 -5 4 -13 5 -17 1 -5 -17 -9 -40 -9 -30 -1 -43 2 -43 12 0
28 69 41 78 14z"/>
<path d="M3876 1444 c-9 -8 -16 -11 -16 -5 0 6 -6 11 -13 11 -10 0 -13 -20
-13 -75 0 -55 3 -75 13 -75 9 0 13 15 13 50 0 57 26 95 57 83 27 -10 33 -23
33 -81 0 -39 4 -52 13 -49 20 7 13 128 -9 144 -24 18 -59 16 -78 -3z"/>
<path d="M4168 1449 c-32 -18 -22 -53 22 -78 51 -28 57 -39 28 -50 -16 -6 -28
-5 -38 5 -9 8 -21 10 -29 5 -23 -15 33 -45 66 -36 58 14 60 64 3 90 -25 11
-40 24 -38 33 3 17 35 25 44 11 8 -14 24 -11 24 5 0 25 -50 34 -82 15z"/>
<path d="M4650 1445 c-16 -19 -5 -64 18 -71 34 -11 47 -22 47 -40 0 -22 -23
-26 -45 -8 -9 8 -21 10 -29 5 -11 -7 -8 -13 12 -26 35 -23 85 -12 93 20 8 31
1 41 -48 66 -36 18 -39 22 -25 36 11 12 19 12 35 4 34 -18 47 -13 27 9 -21 24
-67 26 -85 5z"/>
<path d="M4796 1441 c-23 -26 -8 -56 39 -76 37 -15 43 -26 22 -43 -9 -8 -20
-7 -39 2 -25 13 -38 12 -38 -5 0 -4 8 -10 18 -14 38 -15 61 -14 83 4 21 16 22
22 11 45 -6 14 -18 26 -26 26 -7 0 -24 9 -37 20 -21 17 -22 21 -9 30 20 13 26
13 44 -5 11 -11 17 -12 22 -4 9 15 -23 39 -51 39 -12 0 -30 -9 -39 -19z"/>
<path d="M4955 1435 c-41 -40 -33 -105 16 -131 84 -43 163 54 102 126 -32 39
-83 41 -118 5z m95 -18 c40 -34 13 -97 -41 -97 -53 0 -70 81 -23 108 23 13 40
10 64 -11z"/>
<path d="M5155 1435 c-52 -51 -21 -138 48 -138 40 0 84 30 68 46 -6 6 -16 4
-26 -7 -32 -32 -79 -16 -86 29 -8 57 33 89 78 60 34 -22 55 -4 22 19 -34 23
-76 20 -104 -9z"/>
<path d="M5323 1379 c0 -60 3 -79 13 -79 20 0 20 146 0 153 -10 4 -13 -11 -13
-74z"/>
<path d="M5415 1447 c-28 -21 -9 -40 21 -21 19 13 27 14 39 4 25 -20 17 -37
-19 -44 -57 -11 -84 -63 -43 -85 16 -8 31 -9 48 -3 16 7 31 7 42 0 18 -10 37
-3 37 13 0 5 -5 8 -11 7 -8 -2 -13 18 -15 56 -2 32 -9 65 -15 72 -15 18 -60
18 -84 1z m73 -99 c-4 -28 -54 -44 -63 -20 -7 19 19 42 48 42 13 0 18 -6 15
-22z"/>
<path d="M5699 1455 c-1 -6 -2 -43 -3 -82 -1 -54 2 -73 11 -73 7 0 13 12 14
28 2 86 0 115 -10 125 -6 6 -11 7 -12 2z"/>
<path d="M5796 1438 c-62 -57 -13 -157 70 -142 42 7 66 35 67 79 2 72 -83 111
-137 63z m100 -34 c23 -34 0 -78 -43 -82 -39 -4 -68 31 -58 71 12 48 73 54
101 11z"/>
<path d="M5980 1380 c0 -57 4 -80 13 -80 8 0 12 17 13 50 2 58 24 91 55 83 26
-7 37 -36 34 -90 -1 -30 3 -43 12 -43 22 0 18 123 -5 143 -24 22 -51 21 -81 0
-14 -9 -21 -12 -18 -6 4 6 0 13 -8 17 -13 4 -15 -8 -15 -74z"/>
<path d="M3363 1378 c1 -47 6 -73 15 -76 9 -3 12 16 12 72 0 59 -3 76 -14 76
-11 0 -14 -16 -13 -72z"/>
</g>
</svg>
